<svg width="137" height="137" viewBox="0 0 137 137" fill="none" xmlns="http://www.w3.org/2000/svg">
<circle cx="68.5" cy="68.5" r="68.5" fill="#4A1A1A"/>
<g filter="url(#filter0_d_2_4)">
<path d="M93.6953 80.5234C93.6953 83.0729 93.2083 85.4648 92.2344 87.6992C91.2604 89.9336 89.9284 91.8958 88.2383 93.5859C86.5768 95.2474 84.6289 96.5651 82.3945 97.5391C80.1602 98.513 77.7682 99 75.2188 99H44.4102V37.3828H75.2188C77.7682 37.3828 80.1602 37.8698 82.3945 38.8438C84.6289 39.8177 86.5768 41.1497 88.2383 42.8398C89.9284 44.5013 91.2604 46.4492 92.2344 48.6836C93.2083 50.918 93.6953 53.3099 93.6953 55.8594C93.6953 57.0052 93.5378 58.1797 93.2227 59.3828C92.9076 60.5859 92.4635 61.7461 91.8906 62.8633C91.3177 63.9805 90.6302 64.9974 89.8281 65.9141C89.026 66.8307 88.138 67.5898 87.1641 68.1914C88.1667 68.7357 89.069 69.4805 89.8711 70.4258C90.6732 71.3424 91.3607 72.3594 91.9336 73.4766C92.5065 74.5938 92.9362 75.7682 93.2227 77C93.5378 78.2031 93.6953 79.3776 93.6953 80.5234ZM56.7422 86.668H75.2188C76.0781 86.668 76.8802 86.5104 77.625 86.1953C78.3698 85.8802 79.0143 85.4505 79.5586 84.9062C80.1315 84.3333 80.5755 83.6745 80.8906 82.9297C81.2057 82.1849 81.3633 81.3828 81.3633 80.5234C81.3633 79.6641 81.2057 78.862 80.8906 78.1172C80.5755 77.3724 80.1315 76.7279 79.5586 76.1836C79.0143 75.6107 78.3698 75.1667 77.625 74.8516C76.8802 74.5365 76.0781 74.3789 75.2188 74.3789H56.7422V86.668ZM56.7422 62.0469H75.2188C76.0781 62.0469 76.8802 61.8893 77.625 61.5742C78.3698 61.2591 79.0143 60.8294 79.5586 60.2852C80.1315 59.7122 80.5755 59.0534 80.8906 58.3086C81.2057 57.5352 81.3633 56.7188 81.3633 55.8594C81.3633 55 81.2057 54.1979 80.8906 53.4531C80.5755 52.7083 80.1315 52.0638 79.5586 51.5195C79.0143 50.9466 78.3698 50.5026 77.625 50.1875C76.8802 49.8724 76.0781 49.7148 75.2188 49.7148H56.7422V62.0469Z" fill="#FFF2E7"/>
</g>
<defs>
<filter id="filter0_d_2_4" x="40.4102" y="37.3828" width="57.2852" height="69.6172" filterUnits="userSpaceOnUse" color-interpolation-filters="sRGB">
<feFlood flood-opacity="0" result="BackgroundImageFix"/>
<feColorMatrix in="SourceAlpha" type="matrix" values="0 0 0 0 0 0 0 0 0 0 0 0 0 0 0 0 0 0 127 0" result="hardAlpha"/>
<feOffset dy="4"/>
<feGaussianBlur stdDeviation="2"/>
<feComposite in2="hardAlpha" operator="out"/>
<feColorMatrix type="matrix" values="0 0 0 0 0 0 0 0 0 0 0 0 0 0 0 0 0 0 0.25 0"/>
<feBlend mode="normal" in2="BackgroundImageFix" result="effect1_dropShadow_2_4"/>
<feBlend mode="normal" in="SourceGraphic" in2="effect1_dropShadow_2_4" result="shape"/>
</filter>
</defs>
</svg>
